<svg width="88" height="37" viewBox="0 0 88 37" fill="none" xmlns="http://www.w3.org/2000/svg">
<path d="M58.4401 9.50928C59.1536 9.50928 59.8034 9.69793 60.313 10.1436L60.3668 10.1889C60.9125 10.6633 61.1527 11.322 61.1527 12.0618C61.1527 12.6412 60.9236 13.6022 60.5411 14.8531C60.1496 16.1337 59.6352 17.6576 58.9992 19.4229C58.3626 21.19 57.6559 23.0442 56.8789 24.9854C56.137 26.8913 55.3594 28.745 54.5465 30.5464C53.7682 32.3141 53.0408 33.8576 52.364 35.1746L52.2948 35.309L52.1768 35.4035C51.8712 35.6478 51.4242 35.7974 50.9562 35.9062C50.9521 35.9072 50.9482 35.9084 50.944 35.9094C50.4626 36.0284 49.9508 36.0857 49.4125 36.0857C48.7393 36.0856 48.1146 35.9678 47.5539 35.7133C46.9925 35.4931 46.5308 35.1372 46.2595 34.612L46.1047 34.3265C45.7307 33.6263 45.265 32.6872 44.7091 31.5143L44.7042 31.5041L44.6999 31.494C44.0989 30.1163 43.4456 28.5635 42.74 26.8362C42.0358 25.1121 41.3138 23.3353 40.5744 21.5057L40.5714 21.4981L40.5686 21.4905C39.8632 19.6225 39.2103 17.8419 38.6102 16.1487L38.6095 16.1464L38.6088 16.1443C38.0248 14.4622 37.5394 12.9761 37.1536 11.6872C37.0729 11.4172 37.1129 11.1032 37.3059 10.8531L37.3652 10.7789C37.6663 10.4123 38.0441 10.1208 38.4851 9.90045C38.9938 9.64628 39.5238 9.50929 40.0682 9.50928C40.8163 9.50928 41.4988 9.69742 42.019 10.1652C42.5011 10.5988 42.849 11.2574 43.1115 12.0418L46.3844 21.4841L46.6097 22.1205C46.8517 22.7936 47.1435 23.577 47.4856 24.471C47.9431 25.6667 48.4007 26.8625 48.8582 28.0582C49.1143 28.7275 49.3428 29.3378 49.5447 29.8884C49.6433 29.6888 49.7481 29.4608 49.8573 29.2074C50.2418 28.3155 50.6596 27.1709 51.0609 25.9959C51.4612 24.8239 51.8406 23.6349 52.1485 22.6578C52.4516 21.6963 52.6938 20.9132 52.8114 20.5838C54.0262 17.15 55.0686 13.8041 55.9384 10.5461L55.9508 10.5035C56.0181 10.2922 56.1632 10.0957 56.3812 9.97377L56.4918 9.9147C57.052 9.6308 57.7133 9.50929 58.4401 9.50928Z" fill="#01E3A6"/>
<path d="M22.7156 9.14355C24.9628 9.14355 26.9672 9.62261 28.7063 10.6035C30.4729 11.58 31.8512 12.9557 32.8302 14.7193C33.85 16.4575 34.3502 18.4465 34.3502 20.6644C34.3502 21.5241 34.1575 22.3103 33.6154 22.852L33.6023 22.8651L33.5885 22.8775C33.0989 23.3178 32.4576 23.549 31.7354 23.6321L16.2306 25.7994C16.6585 27.3235 17.3671 28.5225 18.3334 29.4264C19.7894 30.7209 21.8032 31.4064 24.4578 31.4064C25.8567 31.4064 27.101 31.1737 28.201 30.721C29.2881 30.2737 30.1351 29.8082 30.7602 29.3329L30.8184 29.2919C31.097 29.1119 31.4781 29.0749 31.8014 29.2651L31.8697 29.3094L31.9424 29.3623C32.291 29.6221 32.5811 29.9311 32.8032 30.2908C33.1328 30.73 33.2945 31.2408 33.2945 31.7958C33.2945 32.77 32.7223 33.5868 31.8584 34.2538L31.8547 34.2566C31.0222 34.8905 29.9293 35.3791 28.6111 35.7454C27.3046 36.1184 25.8477 36.3003 24.2467 36.3003C21.4512 36.3003 18.9823 35.7921 16.8608 34.7507L16.8587 34.7498L16.8564 34.7487C14.7583 33.7004 13.1235 32.141 11.9639 30.0851L11.9565 30.0718C10.8333 27.9765 10.2891 25.4639 10.2891 22.5636C10.2891 20.4939 10.5798 18.6335 11.1764 16.994L11.1778 16.9899L11.1794 16.9859C11.806 15.3284 12.6612 13.9097 13.7528 12.7437L13.7611 12.7349C14.8866 11.5728 16.2187 10.6913 17.7502 10.0925C19.2847 9.45735 20.9424 9.14356 22.7156 9.14355ZM22.6629 13.9848C20.6756 13.9848 19.0539 14.6951 17.7476 16.1275C16.6948 17.2849 16.0477 18.9139 15.8699 21.0802L28.8547 19.3188C28.6351 17.8337 28.0504 16.6284 27.1186 15.6699L27.1152 15.6662L27.1117 15.6628C26.0762 14.5672 24.6245 13.9848 22.6629 13.9848Z" fill="#01E3A6"/>
<path d="M76.365 9.14355C78.6122 9.14355 80.6166 9.62261 82.3557 10.6035C84.1223 11.58 85.5006 12.9557 86.4796 14.7193C87.4994 16.4575 87.9996 18.4465 87.9996 20.6644C87.9996 21.5241 87.8069 22.3103 87.2648 22.852L87.2517 22.8651L87.2379 22.8775C86.7483 23.3178 86.107 23.549 85.3848 23.6321L69.88 25.7994C70.3079 27.3235 71.0166 28.5225 71.9829 29.4264C73.4388 30.7209 75.4526 31.4064 78.1072 31.4064C79.5061 31.4064 80.7504 31.1737 81.8504 30.721C82.9375 30.2737 83.7845 29.8082 84.4096 29.3329L84.4678 29.2919C84.7464 29.1119 85.1275 29.0749 85.4508 29.2651L85.5191 29.3094L85.5918 29.3623C85.9404 29.6221 86.2305 29.9311 86.4527 30.2908C86.7822 30.73 86.9439 31.2408 86.9439 31.7958C86.9439 32.77 86.3717 33.5868 85.5078 34.2538L85.5041 34.2566C84.6716 34.8905 83.5787 35.3791 82.2605 35.7454C80.954 36.1184 79.4971 36.3003 77.8961 36.3003C75.1007 36.3003 72.6317 35.7921 70.5102 34.7507L70.5081 34.7498L70.5058 34.7487C68.4077 33.7004 66.7729 32.141 65.6133 30.0851L65.606 30.0718C64.4827 27.9765 63.9385 25.4639 63.9385 22.5636C63.9385 20.4939 64.2292 18.6335 64.8258 16.994L64.8272 16.9899L64.8288 16.9859C65.4554 15.3284 66.3106 13.9097 67.4022 12.7437L67.4105 12.7349C68.536 11.5728 69.8681 10.6913 71.3996 10.0925C72.9341 9.45735 74.5919 9.14356 76.365 9.14355ZM76.3123 13.9848C74.325 13.9848 72.7033 14.6951 71.3971 16.1275C70.3442 17.2849 69.6971 18.9139 69.5194 21.0802L82.5041 19.3188C82.2846 17.8337 81.6998 16.6284 80.768 15.6699L80.7646 15.6662L80.7611 15.6628C79.7256 14.5672 78.2739 13.9848 76.3123 13.9848Z" fill="#01E3A6"/>
<path d="M2.59548 0C3.40612 3.77963e-06 4.15048 0.162936 4.67838 0.632095C5.27679 1.09505 5.49999 1.81868 5.5 2.60349V34.9733C5.5 36.1004 3.70929 36.2074 2.90452 36.2074C2.11184 36.2074 1.39461 36.0556 0.850573 35.6507L0.834639 35.6387L0.819603 35.6261C0.232001 35.1341 0 34.4071 0 33.6037V1.23387C4.21043e-06 0.85802 0.226471 0.479817 0.626372 0.349122L0.779879 0.302496C0.936283 0.257977 1.11364 0.215999 1.30885 0.17571C1.73441 0.0594815 2.1637 0 2.59548 0Z" fill="#01E3A6"/>
</svg>
