<svg width="475" height="172" viewBox="0 0 475 172" fill="none" xmlns="http://www.w3.org/2000/svg">
<path d="M54.4632 96.6088C54.4633 73.357 73.2846 54.5072 96.5014 54.5072C119.718 54.5073 138.54 73.357 138.54 96.6088C138.54 106.678 135.029 115.884 129.153 123.128C123.85 129.667 124.844 139.274 131.373 144.585C137.903 149.897 147.495 148.902 152.798 142.363C162.923 129.881 169.001 113.935 169.001 96.6088C169.001 56.5078 136.542 24.0001 96.5014 24C56.4608 24 24.001 56.5078 24.001 96.6088C24.001 113.935 30.08 129.881 40.2044 142.363C45.5081 148.902 55.1004 149.897 61.6296 144.585C68.1588 139.274 69.1522 129.667 63.8485 123.128C57.9733 115.884 54.4632 106.678 54.4632 96.6088Z" fill="#DEDEDE"/>
<path d="M54.4623 96.6088C54.4624 73.3571 73.2829 54.5074 96.4996 54.5072C104.553 54.5072 112.034 56.7607 118.402 60.6636C125.576 65.0614 134.953 62.8012 139.344 55.6156C143.735 48.4301 141.479 39.0398 134.304 34.642C123.286 27.8887 110.323 24 96.4996 24C56.4591 24.0002 24.0001 56.5079 24 96.6088C24 113.935 30.0783 129.881 40.2025 142.363C45.5062 148.902 55.0985 149.897 61.6278 144.585C68.157 139.274 69.1511 129.667 63.8476 123.128C57.9724 115.884 54.4623 106.678 54.4623 96.6088Z" fill="#00E3A6"/>
<path d="M370.382 62.4337C372.328 62.4337 374.1 62.9482 375.49 64.1637L375.637 64.2872C377.125 65.5809 377.78 67.3776 377.78 69.3952C377.78 70.9753 377.155 73.5962 376.112 77.0079C375.044 80.5004 373.641 84.6565 371.907 89.471C370.171 94.2902 368.243 99.3473 366.124 104.641C364.101 109.839 361.98 114.895 359.763 119.808C357.64 124.629 355.657 128.838 353.811 132.43L353.622 132.797L353.3 133.054C352.467 133.721 351.248 134.129 349.972 134.425C349.96 134.428 349.95 134.431 349.938 134.434C348.625 134.759 347.229 134.915 345.761 134.915C343.925 134.915 342.222 134.593 340.692 133.899C339.161 133.299 337.902 132.328 337.162 130.896L336.74 130.117C335.72 128.207 334.45 125.646 332.934 122.447L332.921 122.42L332.909 122.392C331.27 118.635 329.488 114.4 327.564 109.689C325.643 104.987 323.674 100.141 321.657 95.1512L321.649 95.1305L321.642 95.1098C319.718 90.0153 317.937 85.159 316.301 80.5413L316.299 80.535L316.297 80.5294C314.704 75.9416 313.38 71.8886 312.328 68.3735C312.108 67.6373 312.217 66.7808 312.743 66.0987L312.905 65.8963C313.726 64.8965 314.757 64.1016 315.959 63.5006C317.347 62.8074 318.792 62.4338 320.277 62.4337C322.317 62.4337 324.179 62.9468 325.597 64.2227C326.912 65.4052 327.861 67.2012 328.577 69.3406L337.503 95.0923L338.117 96.8279C338.777 98.6637 339.573 100.8 340.506 103.238C341.754 106.5 343.002 109.761 344.25 113.022C344.948 114.847 345.571 116.511 346.122 118.013C346.391 117.469 346.677 116.847 346.974 116.156C348.023 113.723 349.163 110.602 350.257 107.397C351.349 104.201 352.383 100.958 353.223 98.2934C354.05 95.671 354.71 93.5354 355.031 92.637C358.344 83.272 361.187 74.1469 363.559 65.2613L363.593 65.1453C363.777 64.569 364.172 64.0331 364.767 63.7005L365.069 63.5394C366.596 62.7652 368.4 62.4337 370.382 62.4337Z" fill="#01E3A6"/>
<path d="M272.952 61.4363C279.081 61.4363 284.547 62.7428 289.29 65.4178C294.108 68.0812 297.867 71.833 300.537 76.6429C303.319 81.3835 304.683 86.8079 304.683 92.8569C304.683 95.2014 304.157 97.3455 302.679 98.8229L302.643 98.8587L302.605 98.8925C301.27 100.093 299.521 100.724 297.551 100.95L255.266 106.861C256.433 111.018 258.365 114.288 261.001 116.753C264.972 120.283 270.464 122.153 277.704 122.153C281.519 122.153 284.912 121.518 287.912 120.284C290.877 119.064 293.187 117.794 294.892 116.498L295.051 116.386C295.81 115.895 296.85 115.795 297.731 116.313L297.918 116.434L298.116 116.578C299.067 117.287 299.858 118.13 300.464 119.111C301.363 120.309 301.804 121.702 301.804 123.215C301.804 125.872 300.243 128.1 297.887 129.919L297.877 129.926C295.606 131.655 292.626 132.988 289.031 133.987C285.468 135.004 281.494 135.5 277.128 135.5C269.504 135.5 262.77 134.114 256.984 131.274L256.979 131.272L256.972 131.268C251.25 128.409 246.792 124.157 243.629 118.55L243.609 118.513C240.546 112.799 239.062 105.946 239.062 98.0363C239.062 92.3919 239.854 87.3181 241.482 82.8466L241.485 82.8353L241.49 82.8246C243.199 78.3041 245.531 74.4349 248.508 71.2548L248.531 71.231C251.6 68.0614 255.233 65.6575 259.41 64.0244C263.595 62.2921 268.116 61.4363 272.952 61.4363ZM272.808 74.6396C267.389 74.6396 262.966 76.5768 259.403 80.4834C256.532 83.6399 254.767 88.0825 254.282 93.9908L289.695 89.1868C289.096 85.1366 287.501 81.8495 284.96 79.2355L284.951 79.2254L284.942 79.216C282.117 76.2279 278.158 74.6396 272.808 74.6396Z" fill="#01E3A6"/>
<path d="M419.27 61.4363C425.399 61.4363 430.866 62.7428 435.609 65.4178C440.427 68.0812 444.186 71.833 446.856 76.6429C449.637 81.3835 451.001 86.8079 451.001 92.8569C451.001 95.2014 450.476 97.3455 448.997 98.8229L448.961 98.8587L448.924 98.8925C447.588 100.093 445.839 100.724 443.87 100.95L401.584 106.861C402.751 111.018 404.684 114.288 407.319 116.753C411.29 120.283 416.782 122.153 424.022 122.153C427.837 122.153 431.231 121.518 434.231 120.284C437.195 119.064 439.505 117.794 441.21 116.498L441.369 116.386C442.129 115.895 443.168 115.795 444.05 116.313L444.236 116.434L444.434 116.578C445.385 117.287 446.176 118.13 446.782 119.111C447.681 120.309 448.122 121.702 448.122 123.215C448.122 125.872 446.561 128.1 444.205 129.919L444.195 129.926C441.925 131.655 438.944 132.988 435.349 133.987C431.786 135.004 427.812 135.5 423.446 135.5C415.822 135.5 409.089 134.114 403.303 131.274L403.297 131.272L403.291 131.268C397.569 128.409 393.11 124.157 389.948 118.55L389.928 118.513C386.864 112.799 385.38 105.946 385.38 98.0363C385.38 92.3919 386.173 87.3181 387.8 82.8466L387.804 82.8353L387.808 82.8246C389.517 78.3041 391.849 74.4349 394.826 71.2548L394.849 71.231C397.919 68.0614 401.552 65.6575 405.728 64.0244C409.913 62.2921 414.435 61.4363 419.27 61.4363ZM419.127 74.6396C413.707 74.6396 409.284 76.5768 405.721 80.4834C402.85 83.6399 401.085 88.0825 400.6 93.9908L436.013 89.1868C435.415 85.1366 433.82 81.8495 431.279 79.2355L431.269 79.2254L431.26 79.216C428.436 76.2279 424.477 74.6396 419.127 74.6396Z" fill="#01E3A6"/>
<path d="M218.08 36.5C220.29 36.5 222.32 36.9444 223.76 38.2239C225.392 39.4865 226.001 41.46 226.001 43.6004V131.882C226.001 134.956 221.117 135.248 218.922 135.248C216.761 135.248 214.804 134.833 213.321 133.729L213.277 133.697L213.236 133.662C211.634 132.32 211.001 130.338 211.001 128.146V39.8651C211.001 38.8401 211.619 37.8086 212.709 37.4522L213.128 37.325C213.554 37.2036 214.038 37.0891 214.571 36.9792C215.731 36.6622 216.902 36.5 218.08 36.5Z" fill="#01E3A6"/>
</svg>
