<svg width="1024" height="1024" viewBox="0 0 1024 1024" fill="none" xmlns="http://www.w3.org/2000/svg">
<rect width="1024" height="1024" fill="white"/>
<path d="M304.345 564.359C304.346 449.6 397.238 356.568 511.824 356.568C626.41 356.568 719.303 449.601 719.303 564.359C719.303 614.054 701.975 659.493 672.978 695.245C646.802 727.518 651.709 774.932 683.934 801.148C716.159 827.363 763.501 822.453 789.677 790.18C839.646 728.572 869.645 649.872 869.645 564.359C869.644 366.442 709.444 206 511.824 206C314.204 206 154 366.442 153.999 564.359C153.999 649.872 184.003 728.572 233.971 790.18C260.147 822.453 307.49 827.363 339.715 801.148C371.94 774.932 376.842 727.518 350.666 695.245C321.67 659.493 304.345 614.054 304.345 564.359Z" fill="#ECECEC"/>
<path d="M304.341 564.359C304.341 449.601 397.229 356.569 511.815 356.568C551.56 356.568 588.484 367.69 619.912 386.953C655.323 408.658 701.599 397.503 723.271 362.038C744.943 326.574 733.809 280.229 698.399 258.524C644.02 225.192 580.039 206 511.815 206C314.196 206.001 153.995 366.442 153.995 564.359C153.995 649.872 183.994 728.572 233.962 790.18C260.138 822.453 307.481 827.363 339.706 801.148C371.93 774.932 376.837 727.518 350.662 695.245C321.664 659.493 304.341 614.054 304.341 564.359Z" fill="#00E3A6"/>
</svg>
